<svg width="26" height="26" viewBox="0 0 26 26" fill="none" xmlns="http://www.w3.org/2000/svg">
<path d="M18.8604 15.7422C19.1429 15.944 19.3145 16.2266 19.375 16.5898C19.4355 16.9329 19.3548 17.2458 19.1328 17.5283C19.0924 17.609 18.5374 18.154 17.4678 19.1631C16.3981 20.152 14.8844 20.6465 12.9268 20.6465C11.0094 20.6465 9.50586 20.152 8.41602 19.1631C7.34635 18.154 6.78125 17.6191 6.7207 17.5586C6.51888 17.276 6.43815 16.9632 6.47852 16.6201C6.53906 16.2568 6.71061 15.9642 6.99316 15.7422C7.27572 15.5404 7.58854 15.4697 7.93164 15.5303C8.29492 15.5706 8.57747 15.7321 8.7793 16.0146C8.79948 16.0348 9.18294 16.388 9.92969 17.0742C10.6764 17.7402 11.6755 18.0732 12.9268 18.0732C14.1982 18.0732 15.1973 17.7402 15.9238 17.0742C16.6706 16.388 17.0439 16.0348 17.0439 16.0146C17.266 15.7321 17.5485 15.5605 17.8916 15.5C18.2347 15.4395 18.5576 15.5202 18.8604 15.7422ZM12.9268 0C14.7028 0 16.3779 0.343099 17.9521 1.0293C19.5264 1.69531 20.8988 2.61361 22.0693 3.78418C23.2399 4.95475 24.1582 6.32715 24.8242 7.90137C25.5104 9.4554 25.8535 11.1204 25.8535 12.8965C25.8535 14.6927 25.5104 16.3779 24.8242 17.9521C24.1582 19.5062 23.2399 20.8685 22.0693 22.0391C20.8988 23.2096 19.5264 24.138 17.9521 24.8242C16.3779 25.4902 14.7028 25.8232 12.9268 25.8232C11.1507 25.8232 9.47559 25.4902 7.90137 24.8242C6.32715 24.138 4.95475 23.2096 3.78418 22.0391C2.61361 20.8685 1.68522 19.5062 0.999023 17.9521C0.333008 16.3779 0 14.6927 0 12.8965C0 11.1204 0.333008 9.4554 0.999023 7.90137C1.68522 6.32715 2.61361 4.95475 3.78418 3.78418C4.95475 2.61361 6.32715 1.69531 7.90137 1.0293C9.47559 0.343099 11.1507 0 12.9268 0ZM12.9268 23.25C14.3597 23.25 15.7018 22.9775 16.9531 22.4326C18.2044 21.8877 19.2943 21.151 20.2227 20.2227C21.1712 19.2741 21.9079 18.1742 22.4326 16.9229C22.9775 15.6715 23.25 14.3294 23.25 12.8965C23.25 11.4837 22.9775 10.1517 22.4326 8.90039C21.9079 7.62891 21.1712 6.52897 20.2227 5.60059C19.2943 4.6722 18.2044 3.93555 16.9531 3.39062C15.7018 2.8457 14.3597 2.57324 12.9268 2.57324C11.4938 2.57324 10.1517 2.8457 8.90039 3.39062C7.64909 3.93555 6.54915 4.6722 5.60059 5.60059C4.6722 6.52897 3.93555 7.62891 3.39062 8.90039C2.86589 10.1517 2.60352 11.4837 2.60352 12.8965C2.60352 14.3294 2.86589 15.6715 3.39062 16.9229C3.93555 18.1742 4.6722 19.2741 5.60059 20.2227C6.54915 21.151 7.64909 21.8877 8.90039 22.4326C10.1517 22.9775 11.4938 23.25 12.9268 23.25ZM10.3535 9.6875C10.3535 9.14258 10.1618 8.68848 9.77832 8.3252C9.39486 7.94173 8.94076 7.75 8.41602 7.75C7.87109 7.75 7.4069 7.94173 7.02344 8.3252C6.66016 8.68848 6.47852 9.14258 6.47852 9.6875C6.47852 10.2122 6.66016 10.6663 7.02344 11.0498C7.4069 11.4333 7.87109 11.625 8.41602 11.625C8.94076 11.625 9.39486 11.4333 9.77832 11.0498C10.1618 10.6663 10.3535 10.2122 10.3535 9.6875ZM19.375 9.6875C19.375 9.14258 19.1833 8.68848 18.7998 8.3252C18.4365 7.94173 17.9824 7.75 17.4375 7.75C16.9128 7.75 16.4587 7.94173 16.0752 8.3252C15.6917 8.68848 15.5 9.14258 15.5 9.6875C15.5 10.2122 15.6917 10.6663 16.0752 11.0498C16.4587 11.4333 16.9128 11.625 17.4375 11.625C17.9824 11.625 18.4365 11.4333 18.7998 11.0498C19.1833 10.6663 19.375 10.2122 19.375 9.6875Z" fill="black"/>
</svg>
