<svg width="26" height="26" viewBox="0 0 26 26" fill="none" xmlns="http://www.w3.org/2000/svg">
<path d="M12.9268 0C14.7028 0 16.3779 0.343099 17.9521 1.0293C19.5264 1.69531 20.8988 2.61361 22.0693 3.78418C23.2399 4.95475 24.1582 6.32715 24.8242 7.90137C25.5104 9.4554 25.8535 11.1204 25.8535 12.8965C25.8535 14.3294 25.6315 15.6917 25.1875 16.9834C24.7435 18.2751 24.1279 19.4557 23.3408 20.5254C22.5739 21.5951 21.6455 22.5335 20.5557 23.3408C19.486 24.1279 18.3053 24.7334 17.0137 25.1572C16.6908 25.2178 16.4587 25.1774 16.3174 25.0361C16.1963 24.8747 16.1357 24.7132 16.1357 24.5518C16.1357 24.3298 16.1357 23.8958 16.1357 23.25C16.1357 22.6042 16.1357 21.8574 16.1357 21.0098C16.1357 20.4043 16.0449 19.8997 15.8633 19.4961C15.7018 19.0924 15.5 18.7998 15.2578 18.6182C16.7109 18.4567 18.0531 17.9723 19.2842 17.165C20.5355 16.3577 21.1611 14.7129 21.1611 12.2305C21.1611 11.5241 21.04 10.8883 20.7979 10.3232C20.5758 9.73796 20.2529 9.22331 19.8291 8.7793C19.9098 8.59766 19.9906 8.2041 20.0713 7.59863C20.1722 6.99316 20.0511 6.24642 19.708 5.3584C19.708 5.3584 19.4255 5.36849 18.8604 5.38867C18.2952 5.40885 17.3971 5.83268 16.166 6.66016C15.6413 6.51888 15.1064 6.41797 14.5615 6.35742C14.0166 6.27669 13.4717 6.23633 12.9268 6.23633C12.3818 6.23633 11.8369 6.27669 11.292 6.35742C10.7471 6.41797 10.2122 6.51888 9.6875 6.66016C8.45638 5.83268 7.55827 5.40885 6.99316 5.38867C6.42806 5.36849 6.14551 5.3584 6.14551 5.3584C5.78223 6.24642 5.65104 6.99316 5.75195 7.59863C5.85286 8.2041 5.94368 8.59766 6.02441 8.7793C5.60059 9.22331 5.26758 9.73796 5.02539 10.3232C4.80339 10.8883 4.69238 11.5241 4.69238 12.2305C4.69238 14.7129 5.30794 16.3577 6.53906 17.165C7.79036 17.9723 9.13249 18.4567 10.5654 18.6182C10.3838 18.7796 10.2122 19.0016 10.0508 19.2842C9.90951 19.5667 9.80859 19.9199 9.74805 20.3438C9.38477 20.5052 8.80957 20.6162 8.02246 20.6768C7.23535 20.7171 6.55924 20.2529 5.99414 19.2842C5.99414 19.2842 5.82259 19.0723 5.47949 18.6484C5.15658 18.2246 4.66211 17.9925 3.99609 17.9521C3.99609 17.9521 3.83464 17.9824 3.51172 18.043C3.20898 18.1035 3.35026 18.3255 3.93555 18.709C3.93555 18.709 4.09701 18.8402 4.41992 19.1025C4.74284 19.3649 5.05566 19.8695 5.3584 20.6162C5.3584 20.6162 5.63086 20.9997 6.17578 21.7666C6.74089 22.5335 7.92155 22.7253 9.71777 22.3418C9.71777 22.8867 9.71777 23.3509 9.71777 23.7344C9.71777 24.1178 9.71777 24.3903 9.71777 24.5518C9.71777 24.7132 9.64714 24.8747 9.50586 25.0361C9.38477 25.1774 9.16276 25.2178 8.83984 25.1572C7.56836 24.7334 6.3877 24.1279 5.29785 23.3408C4.20801 22.5335 3.26953 21.5951 2.48242 20.5254C1.71549 19.4557 1.11003 18.2751 0.666016 16.9834C0.222005 15.6917 0 14.3294 0 12.8965C0 11.1204 0.333008 9.4554 0.999023 7.90137C1.68522 6.32715 2.61361 4.95475 3.78418 3.78418C4.95475 2.61361 6.32715 1.69531 7.90137 1.0293C9.47559 0.343099 11.1507 0 12.9268 0Z" fill="black"/>
</svg>
