<svg width="16" height="26" viewBox="0 0 16 26" fill="none" xmlns="http://www.w3.org/2000/svg">
<path d="M14.1982 0C14.5615 0 14.8643 0.131185 15.1064 0.393555C15.3688 0.635742 15.5 0.928385 15.5 1.27148V24.5215C15.5 24.8848 15.3688 25.1976 15.1064 25.46C14.8643 25.7021 14.5615 25.8232 14.1982 25.8232H1.30176C0.938477 25.8232 0.625651 25.7021 0.363281 25.46C0.121094 25.1976 0 24.8848 0 24.5215V1.27148C0 0.928385 0.121094 0.635742 0.363281 0.393555C0.625651 0.131185 0.938477 0 1.30176 0H14.1982ZM10.3232 23.25V21.9482H5.17676V23.25H10.3232ZM12.9268 19.375V3.875H2.57324V19.375H12.9268Z" fill="black"/>
</svg>
