<svg width="26" height="26" viewBox="0 0 26 26" fill="none" xmlns="http://www.w3.org/2000/svg">
<path d="M0 0H25.8535V25.8232H0V0ZM23.25 23.25V2.57324H2.60352V23.25H23.25ZM8.02246 14.2588V18.5273H5.99414V7.32617C6.35742 7.26562 6.79134 7.21517 7.2959 7.1748C7.82064 7.11426 8.4362 7.08398 9.14258 7.08398C9.90951 7.08398 10.5654 7.16471 11.1104 7.32617C11.6755 7.48763 12.1396 7.71973 12.5029 8.02246C12.8258 8.30501 13.0882 8.6582 13.29 9.08203C13.4919 9.50586 13.5928 9.99023 13.5928 10.5352C13.5928 11.0599 13.512 11.5443 13.3506 11.9883C13.1891 12.4323 12.9469 12.8057 12.624 13.1084C12.2204 13.512 11.7057 13.8148 11.0801 14.0166C10.4544 14.2184 9.77832 14.3193 9.05176 14.3193C8.84993 14.3193 8.6582 14.3193 8.47656 14.3193C8.3151 14.2992 8.16374 14.279 8.02246 14.2588ZM8.02246 8.7793V12.624C8.16374 12.6442 8.3151 12.6644 8.47656 12.6846C8.63802 12.6846 8.82975 12.6846 9.05176 12.6846C9.81868 12.6846 10.4242 12.5029 10.8682 12.1396C11.3122 11.7764 11.5342 11.2617 11.5342 10.5957C11.5342 9.97005 11.3223 9.49577 10.8984 9.17285C10.4948 8.84993 9.93978 8.68848 9.2334 8.68848C8.95085 8.68848 8.70866 8.69857 8.50684 8.71875C8.30501 8.73893 8.14355 8.75911 8.02246 8.7793ZM16.6201 17.1953C17.0843 17.1953 17.4173 17.1146 17.6191 16.9531C17.8411 16.7917 17.9521 16.5697 17.9521 16.2871C17.9521 16.0247 17.8512 15.8128 17.6494 15.6514C17.4476 15.4697 17.0944 15.2881 16.5898 15.1064C15.8027 14.8239 15.2275 14.4808 14.8643 14.0771C14.501 13.6533 14.3294 13.1992 14.3496 12.7148C14.3496 11.9883 14.6221 11.3828 15.167 10.8984C15.7321 10.3939 16.4889 10.1416 17.4375 10.1416C17.9017 10.1416 18.3154 10.1921 18.6787 10.293C19.0622 10.3939 19.375 10.5049 19.6172 10.626L19.2236 12.0791C19.042 11.9782 18.7897 11.8773 18.4668 11.7764C18.1641 11.6755 17.8311 11.625 17.4678 11.625C17.1045 11.625 16.8219 11.7057 16.6201 11.8672C16.4183 12.0286 16.3174 12.2305 16.3174 12.4727C16.3174 12.735 16.4284 12.9469 16.6504 13.1084C16.8724 13.2699 17.2458 13.4414 17.7705 13.623C18.4971 13.8854 19.042 14.2184 19.4053 14.6221C19.7686 15.0257 19.9502 15.5303 19.9502 16.1357C19.9502 16.8825 19.6676 17.498 19.1025 17.9824C18.5374 18.4466 17.71 18.6787 16.6201 18.6787C16.1156 18.6787 15.6514 18.6283 15.2275 18.5273C14.8037 18.4264 14.4404 18.2852 14.1377 18.1035L14.5312 16.6201C14.7734 16.7614 15.0863 16.8926 15.4697 17.0137C15.8734 17.1348 16.2568 17.1953 16.6201 17.1953Z" fill="black"/>
</svg>
