<svg width="25" height="23" viewBox="0 0 25 23" fill="none" xmlns="http://www.w3.org/2000/svg">
<path d="M8.74902 11.0498L9.53613 9.38477L10.293 11.0498H8.74902ZM12.2607 0C13.9561 0 15.5505 0.26237 17.0439 0.787109C18.5374 1.29167 19.8392 1.98796 20.9492 2.87598C22.0592 3.764 22.9271 4.80339 23.5527 5.99414C24.1986 7.16471 24.5215 8.42611 24.5215 9.77832C24.5215 11.1305 24.1986 12.402 23.5527 13.5928C22.9271 14.7835 22.0592 15.8229 20.9492 16.7109C19.8392 17.5788 18.5374 18.2751 17.0439 18.7998C15.5505 19.3044 13.9561 19.5566 12.2607 19.5566C11.8571 19.5566 11.4635 19.5465 11.0801 19.5264C10.6966 19.486 10.3232 19.4355 9.95996 19.375L4.63184 22.7656L5.57031 17.9824C4.72266 17.5384 3.95573 17.0238 3.26953 16.4385C2.58333 15.8532 1.99805 15.2174 1.51367 14.5312C1.0293 13.8249 0.655924 13.0781 0.393555 12.291C0.131185 11.4837 0 10.6462 0 9.77832C0 8.42611 0.312826 7.16471 0.938477 5.99414C1.58431 4.80339 2.46224 3.764 3.57227 2.87598C4.68229 1.98796 5.98405 1.29167 7.47754 0.787109C8.97103 0.26237 10.5654 0 12.2607 0ZM6.05469 12.6846V8.41602H7.2959C7.35645 8.41602 7.41699 8.40592 7.47754 8.38574C7.53809 8.34538 7.59863 8.30501 7.65918 8.26465C7.67936 8.24447 7.69954 8.22428 7.71973 8.2041C7.73991 8.16374 7.75 8.13346 7.75 8.11328C7.77018 8.0931 7.78027 8.06283 7.78027 8.02246C7.80046 7.9821 7.81055 7.95182 7.81055 7.93164C7.81055 7.89128 7.80046 7.861 7.78027 7.84082C7.78027 7.80046 7.77018 7.77018 7.75 7.75C7.72982 7.70964 7.69954 7.66927 7.65918 7.62891C7.639 7.58854 7.60872 7.55827 7.56836 7.53809C7.52799 7.5179 7.47754 7.49772 7.41699 7.47754C7.37663 7.45736 7.33626 7.44727 7.2959 7.44727H3.63281C3.57227 7.44727 3.50163 7.46745 3.4209 7.50781C3.36035 7.52799 3.3099 7.55827 3.26953 7.59863C3.24935 7.61882 3.22917 7.639 3.20898 7.65918C3.1888 7.67936 3.16862 7.70964 3.14844 7.75C3.14844 7.77018 3.13835 7.80046 3.11816 7.84082C3.11816 7.861 3.11816 7.89128 3.11816 7.93164C3.11816 7.95182 3.11816 7.9821 3.11816 8.02246C3.13835 8.06283 3.14844 8.0931 3.14844 8.11328C3.16862 8.15365 3.1888 8.19401 3.20898 8.23438C3.24935 8.27474 3.28971 8.30501 3.33008 8.3252C3.39062 8.34538 3.44108 8.36556 3.48145 8.38574C3.52181 8.40592 3.57227 8.41602 3.63281 8.41602H4.9043V12.6846C4.9043 12.7451 4.91439 12.8057 4.93457 12.8662C4.95475 12.9268 4.98503 12.9873 5.02539 13.0479C5.08594 13.0882 5.14648 13.1286 5.20703 13.1689C5.26758 13.1891 5.33822 13.1992 5.41895 13.1992H5.50977C5.59049 13.1992 5.66113 13.1891 5.72168 13.1689C5.78223 13.1286 5.84277 13.0882 5.90332 13.0479C5.94368 12.9873 5.97396 12.9268 5.99414 12.8662C6.03451 12.8057 6.05469 12.7451 6.05469 12.6846ZM12.1699 12.9268L12.291 12.7148L10.1113 7.87109C10.0911 7.83073 10.071 7.80046 10.0508 7.78027C10.0508 7.76009 10.0508 7.72982 10.0508 7.68945C10.0306 7.68945 10.0104 7.67936 9.99023 7.65918C9.99023 7.639 9.98014 7.61882 9.95996 7.59863C9.93978 7.57845 9.9196 7.55827 9.89941 7.53809C9.87923 7.5179 9.85905 7.50781 9.83887 7.50781C9.7985 7.46745 9.75814 7.44727 9.71777 7.44727C9.67741 7.42708 9.62695 7.41699 9.56641 7.41699C9.54622 7.41699 9.52604 7.41699 9.50586 7.41699C9.44531 7.41699 9.39486 7.42708 9.35449 7.44727C9.31413 7.44727 9.27376 7.45736 9.2334 7.47754C9.19303 7.49772 9.15267 7.52799 9.1123 7.56836C9.09212 7.58854 9.07194 7.61882 9.05176 7.65918C9.05176 7.65918 9.04167 7.66927 9.02148 7.68945C9.02148 7.68945 9.02148 7.69954 9.02148 7.71973C9.0013 7.73991 8.98112 7.76009 8.96094 7.78027C8.96094 7.80046 8.96094 7.82064 8.96094 7.84082L8.93066 7.90137L6.87207 12.4424C6.85189 12.4827 6.83171 12.5231 6.81152 12.5635C6.81152 12.5837 6.81152 12.6139 6.81152 12.6543C6.81152 12.7148 6.82161 12.7653 6.8418 12.8057C6.86198 12.846 6.88216 12.8864 6.90234 12.9268C6.92253 12.9671 6.9528 13.0075 6.99316 13.0479C7.03353 13.0882 7.07389 13.1185 7.11426 13.1387L7.23535 13.1689C7.31608 13.2093 7.39681 13.2295 7.47754 13.2295C7.55827 13.2093 7.639 13.179 7.71973 13.1387C7.76009 13.1185 7.79036 13.0882 7.81055 13.0479C7.85091 13.0075 7.88118 12.9671 7.90137 12.9268L8.3252 11.9883H10.7168L11.1406 12.9268C11.1608 12.9671 11.181 13.0075 11.2012 13.0479C11.2415 13.0882 11.2819 13.1185 11.3223 13.1387C11.403 13.1992 11.4837 13.2295 11.5645 13.2295C11.6654 13.2295 11.7562 13.2093 11.8369 13.1689L11.9277 13.1387C11.9681 13.1185 12.0085 13.0983 12.0488 13.0781C12.0892 13.0378 12.1296 12.9873 12.1699 12.9268ZM16.5596 12.9268L16.7109 12.6543L16.499 12.4424C16.4788 12.4222 16.4587 12.402 16.4385 12.3818C16.4183 12.3617 16.3981 12.3516 16.3779 12.3516C16.3376 12.3112 16.2871 12.291 16.2266 12.291C16.1862 12.2708 16.1458 12.2607 16.1055 12.2607H13.7139V7.96191C13.7139 7.90137 13.6937 7.84082 13.6533 7.78027C13.6331 7.71973 13.6029 7.65918 13.5625 7.59863C13.5221 7.55827 13.4616 7.52799 13.3809 7.50781C13.3203 7.46745 13.2598 7.44727 13.1992 7.44727H13.0781C13.0176 7.44727 12.9469 7.46745 12.8662 7.50781C12.8057 7.52799 12.7552 7.55827 12.7148 7.59863C12.6745 7.65918 12.6341 7.71973 12.5938 7.78027C12.5736 7.84082 12.5635 7.90137 12.5635 7.96191V12.8359L12.624 12.9268C12.6442 12.9671 12.6644 13.0075 12.6846 13.0479C12.7249 13.068 12.7653 13.0882 12.8057 13.1084C12.8258 13.1286 12.8561 13.1488 12.8965 13.1689C12.9368 13.1689 12.9772 13.179 13.0176 13.1992C13.0378 13.1992 13.0479 13.1992 13.0479 13.1992C13.068 13.1992 13.0781 13.1992 13.0781 13.1992H16.1055C16.166 13.1992 16.2266 13.1891 16.2871 13.1689C16.3477 13.1286 16.4082 13.0882 16.4688 13.0479C16.4889 13.0277 16.499 13.0075 16.499 12.9873C16.5192 12.9671 16.5394 12.9469 16.5596 12.9268ZM21.373 12.8359C21.3932 12.7956 21.4033 12.7552 21.4033 12.7148C21.4235 12.6745 21.4336 12.6341 21.4336 12.5938C21.4336 12.5534 21.4235 12.513 21.4033 12.4727C21.3831 12.4121 21.363 12.3516 21.3428 12.291L19.5869 9.92969L21.04 8.41602C21.0804 8.35547 21.1107 8.29492 21.1309 8.23438C21.1712 8.17383 21.1914 8.11328 21.1914 8.05273C21.1914 8.01237 21.1813 7.9821 21.1611 7.96191C21.1611 7.92155 21.1611 7.88118 21.1611 7.84082C21.141 7.82064 21.1208 7.80046 21.1006 7.78027C21.0804 7.73991 21.0602 7.70964 21.04 7.68945L20.9492 7.59863C20.8685 7.5179 20.7777 7.47754 20.6768 7.47754C20.5758 7.45736 20.4749 7.46745 20.374 7.50781C20.3538 7.50781 20.3236 7.5179 20.2832 7.53809C20.263 7.55827 20.2428 7.57845 20.2227 7.59863L18.1035 9.80859V7.96191C18.1035 7.90137 18.0833 7.84082 18.043 7.78027C18.0228 7.71973 17.9925 7.65918 17.9521 7.59863C17.9118 7.55827 17.8512 7.52799 17.7705 7.50781C17.71 7.46745 17.6494 7.44727 17.5889 7.44727H17.4678C17.4072 7.44727 17.3366 7.46745 17.2559 7.50781C17.1953 7.52799 17.1449 7.55827 17.1045 7.59863C17.0641 7.65918 17.0238 7.71973 16.9834 7.78027C16.9632 7.84082 16.9531 7.90137 16.9531 7.96191V12.8057L17.0137 12.9268C17.0339 12.9469 17.0439 12.9671 17.0439 12.9873C17.0641 13.0075 17.0843 13.0277 17.1045 13.0479C17.1449 13.0882 17.1953 13.1286 17.2559 13.1689C17.3366 13.1891 17.4072 13.1992 17.4678 13.1992H17.5889C17.6494 13.1992 17.71 13.1891 17.7705 13.1689C17.8311 13.1286 17.8916 13.0882 17.9521 13.0479C17.9925 12.9873 18.0228 12.9268 18.043 12.8662C18.0833 12.8057 18.1035 12.7451 18.1035 12.6846V11.4736L18.7695 10.7773L20.4043 12.9873C20.4245 13.0277 20.4447 13.0579 20.4648 13.0781C20.5052 13.0983 20.5456 13.1185 20.5859 13.1387C20.6667 13.179 20.7575 13.1992 20.8584 13.1992C20.9593 13.179 21.0501 13.1488 21.1309 13.1084L21.2217 13.0176C21.262 12.9974 21.2923 12.9772 21.3125 12.957C21.3327 12.9167 21.3529 12.8763 21.373 12.8359Z" fill="black"/>
</svg>
