<svg width="29" height="23" viewBox="0 0 29 23" fill="none" xmlns="http://www.w3.org/2000/svg">
<path d="M9.92969 8.11328C10.1315 8.37565 10.3132 8.69857 10.4746 9.08203C10.6562 9.44531 10.7471 9.87923 10.7471 10.3838C10.7471 11.6351 10.3031 12.6139 9.41504 13.3203C8.52702 14.0065 7.36654 14.3496 5.93359 14.3496C5.59049 14.3496 5.25749 14.3294 4.93457 14.2891C4.63184 14.2487 4.37956 14.2083 4.17773 14.168L3.4209 15.3486L5.63086 15.5C7.58854 15.6211 9.1123 15.833 10.2021 16.1357C11.292 16.4385 11.8369 17.3467 11.8369 18.8604C11.8369 20.152 11.292 21.151 10.2021 21.8574C9.1123 22.5638 7.58854 22.917 5.63086 22.917C3.59245 22.917 2.13932 22.6748 1.27148 22.1904C0.423828 21.6859 0 20.9896 0 20.1016C0 19.597 0.100911 19.1833 0.302734 18.8604C0.52474 18.5173 0.837565 18.1641 1.24121 17.8008C0.857747 17.6393 0.595378 17.4274 0.454102 17.165C0.312826 16.9027 0.242188 16.6201 0.242188 16.3174C0.242188 16.055 0.292643 15.8128 0.393555 15.5908C0.514648 15.3688 0.686198 15.1468 0.908203 14.9248C1.11003 14.7028 1.32194 14.4909 1.54395 14.2891C1.76595 14.0671 2.01823 13.8249 2.30078 13.5625C1.73568 13.3001 1.27148 12.8864 0.908203 12.3213C0.544922 11.736 0.363281 11.0195 0.363281 10.1719C0.363281 8.88021 0.787109 7.83073 1.63477 7.02344C2.5026 6.21615 3.79427 5.8125 5.50977 5.8125C5.99414 5.8125 6.39779 5.83268 6.7207 5.87305C7.04362 5.91341 7.33626 5.96387 7.59863 6.02441H11.9883V7.96191L9.92969 8.11328ZM3.23926 18.4062C3.09798 18.5879 2.9668 18.7796 2.8457 18.9814C2.72461 19.1631 2.66406 19.3649 2.66406 19.5869C2.66406 20.0511 2.91634 20.3639 3.4209 20.5254C3.94564 20.6868 4.60156 20.7676 5.38867 20.7676C6.03451 20.7676 6.71061 20.707 7.41699 20.5859C8.12337 20.4447 8.47656 20.0713 8.47656 19.4658C8.47656 19.1025 8.28483 18.8805 7.90137 18.7998C7.53809 18.7191 7.08398 18.6585 6.53906 18.6182L3.23926 18.4062ZM5.72168 8.05273C5.09603 8.05273 4.57129 8.21419 4.14746 8.53711C3.74382 8.86003 3.54199 9.38477 3.54199 10.1113C3.54199 10.6764 3.70345 11.1305 4.02637 11.4736C4.36947 11.8167 4.91439 11.9883 5.66113 11.9883C6.28678 11.9883 6.79134 11.8167 7.1748 11.4736C7.57845 11.1305 7.78027 10.6663 7.78027 10.0811C7.78027 9.41504 7.59863 8.91048 7.23535 8.56738C6.87207 8.22428 6.36751 8.05273 5.72168 8.05273ZM13.0479 17.5586V15.8027L14.1982 15.6211C14.3597 15.6009 14.4606 15.5706 14.501 15.5303C14.5413 15.4697 14.5615 15.3486 14.5615 15.167V8.53711C14.5615 8.41602 14.5413 8.3151 14.501 8.23438C14.4606 8.15365 14.3799 8.10319 14.2588 8.08301L13.0479 7.62891L13.29 5.8125H17.9824V15.167C17.9824 15.3486 17.9925 15.4697 18.0127 15.5303C18.0531 15.5706 18.1641 15.6009 18.3457 15.6211L19.4961 15.8027V17.5586H13.0479ZM15.9541 4.02637C15.3083 4.02637 14.8037 3.84473 14.4404 3.48145C14.0973 3.11816 13.9258 2.61361 13.9258 1.96777C13.9258 1.34212 14.0973 0.857747 14.4404 0.514648C14.8037 0.171549 15.3083 0 15.9541 0C16.6201 0 17.1247 0.171549 17.4678 0.514648C17.8311 0.857747 18.0127 1.34212 18.0127 1.96777C18.0127 2.61361 17.8311 3.11816 17.4678 3.48145C17.1247 3.84473 16.6201 4.02637 15.9541 4.02637ZM28.3965 16.7109C27.9121 16.9329 27.3369 17.1348 26.6709 17.3164C26.0251 17.498 25.3792 17.5889 24.7334 17.5889C23.3812 17.5889 22.4225 17.3063 21.8574 16.7412C21.3125 16.1761 21.04 15.2477 21.04 13.9561V8.05273C21.04 7.99219 21.0299 7.94173 21.0098 7.90137C20.9896 7.861 20.9391 7.84082 20.8584 7.84082H19.2539V5.8125C20.263 5.71159 20.9896 5.38867 21.4336 4.84375C21.8776 4.27865 22.1602 3.38053 22.2812 2.14941H24.4307V5.3584C24.4307 5.43913 24.4408 5.49967 24.4609 5.54004C24.4811 5.56022 24.5316 5.57031 24.6123 5.57031H27.791V7.84082H24.4307V13.2295C24.4307 13.8955 24.5316 14.3698 24.7334 14.6523C24.9554 14.9349 25.3691 15.0762 25.9746 15.0762C26.2975 15.0762 26.6104 15.0459 26.9131 14.9854C27.236 14.9046 27.5286 14.8138 27.791 14.7129L28.3965 16.7109Z" fill="black"/>
</svg>
