<svg width="24" height="24" viewBox="0 0 24 24" fill="none" xmlns="http://www.w3.org/2000/svg">
<path d="M0 0H23.25V23.25H0V0ZM6.11523 19.4355C6.3776 19.9805 6.77116 20.4548 7.2959 20.8584C7.82064 21.2419 8.51693 21.4336 9.38477 21.4336C10.3535 21.4336 11.1406 21.1712 11.7461 20.6465C12.3516 20.1016 12.6543 19.264 12.6543 18.1338V10.6865H10.4746V18.1035C10.4746 18.6484 10.3636 19.0218 10.1416 19.2236C9.93978 19.4053 9.65723 19.4961 9.29395 19.4961C8.93066 19.4961 8.64811 19.3851 8.44629 19.1631C8.24447 18.9411 8.06283 18.6787 7.90137 18.376L6.11523 19.4355ZM13.835 19.1934C14.1579 19.8392 14.6423 20.374 15.2881 20.7979C15.9541 21.2217 16.8018 21.4336 17.8311 21.4336C18.8604 21.4336 19.7181 21.1712 20.4043 20.6465C21.0905 20.1217 21.4336 19.3649 21.4336 18.376C21.4336 17.4678 21.1813 16.7715 20.6768 16.2871C20.1722 15.8027 19.4557 15.3587 18.5273 14.9551L17.9824 14.7129C17.5182 14.5111 17.1751 14.3294 16.9531 14.168C16.7513 13.9863 16.6504 13.734 16.6504 13.4111C16.6504 13.1488 16.7412 12.9268 16.9229 12.7451C17.1045 12.5635 17.3568 12.4727 17.6797 12.4727C18.0026 12.4727 18.2751 12.5433 18.4971 12.6846C18.7191 12.8258 18.9209 13.068 19.1025 13.4111L20.7979 12.291C20.4346 11.6654 20.0007 11.2214 19.4961 10.959C18.9915 10.6966 18.3861 10.5654 17.6797 10.5654C16.7109 10.5654 15.9339 10.8379 15.3486 11.3828C14.7835 11.9277 14.501 12.6139 14.501 13.4414C14.501 14.3294 14.7331 15.0156 15.1973 15.5C15.6816 15.9844 16.3174 16.3981 17.1045 16.7412L17.6494 16.9834C18.154 17.1852 18.5475 17.387 18.8301 17.5889C19.1126 17.7705 19.2539 18.0531 19.2539 18.4365C19.2539 18.7393 19.1126 18.9915 18.8301 19.1934C18.5677 19.3952 18.2145 19.4961 17.7705 19.4961C17.2256 19.4961 16.7816 19.375 16.4385 19.1328C16.1156 18.8704 15.8431 18.5475 15.6211 18.1641L13.835 19.1934Z" fill="black"/>
</svg>
